<?xml version="1.0" standalone="no"?><!DOCTYPE svg PUBLIC "-//W3C//DTD SVG 1.1//EN" "http://www.w3.org/Graphics/SVG/1.1/DTD/svg11.dtd"><svg t="1591175038464" class="icon" viewBox="0 0 1024 1024" version="1.1" xmlns="http://www.w3.org/2000/svg" p-id="7400" xmlns:xlink="http://www.w3.org/1999/xlink" width="200" height="200"><defs><style type="text/css"></style></defs><path d="M434 229a19.06 19.06 0 0 0-19 19v194a19 19 0 0 0 38 0V248a19.06 19.06 0 0 0-19-19zM689.63 501.25A94.78 94.78 0 0 1 784 595.63v9.62H240v-9.62a94.78 94.78 0 0 1 94.38-94.38h355.25m0-38H334.38c-72.81 0-132.38 59.57-132.38 132.38v19.65a28 28 0 0 0 28 28h564.38A27.7 27.7 0 0 0 822 615.63v-20c0-72.81-59.57-132.38-132.37-132.38zM702 139a20 20 0 0 1 20 20v10a20 20 0 0 1-20 20H322a20 20 0 0 1-20-20v-10a20 20 0 0 1 20-20h380m0-40H322a60 60 0 0 0-60 60v10a60 60 0 0 0 60 60h380a60 60 0 0 0 60-60v-10a60 60 0 0 0-60-60z" fill="#FFFFFF" p-id="7401"></path><path d="M531.22 666l-19 87.47L493.63 666h37.59m33.95-38H459.83A10.83 10.83 0 0 0 449 638.83l52 244.34A10.83 10.83 0 0 0 511.83 894h0.34A10.83 10.83 0 0 0 523 883.17l53-244.34A10.83 10.83 0 0 0 565.17 628zM632 229v232H392V229h240m40-40H352v312h320V189z" fill="#FFFFFF" p-id="7402"></path></svg>